<svg width="343" height="374" viewBox="0 0 343 374" fill="none" xmlns="http://www.w3.org/2000/svg">
<g opacity="0.98">
<path d="M332.933 4H10.0671C6.38148 4 3.39368 6.98778 3.39368 10.6734V333.539C3.39368 337.225 6.38146 340.213 10.0671 340.213H332.933C336.618 340.213 339.606 337.225 339.606 333.539V10.6734C339.606 6.9878 336.618 4 332.933 4Z" stroke="black" stroke-width="2.22448" stroke-miterlimit="10"/>
<path d="M74.4727 340.824H250.136C250.874 334.112 223.967 191.367 192.36 145.478C188.772 140.27 158.054 136.482 146.778 149.435C87.045 218.033 73.0293 339.18 74.4727 340.824Z" fill="black"/>
<path d="M196.526 157.324C201.512 170.241 220.321 215.528 230.544 248.029C237.404 269.839 240.016 288.144 241.517 292.954C241.517 292.954 189.649 276.294 177.971 276.265C159.986 276.22 131.134 313.785 138.212 318.488C149.336 325.89 202.369 351.059 244.719 358.961C267.74 363.258 311.116 333.997 307.688 310.734C302.878 278.086 243.879 192.027 221.432 167.625C209.779 154.958 190.449 141.582 196.526 157.324Z" fill="#FF9581"/>
<path d="M310.849 317.636C309.762 341.152 280.345 360.95 263.283 361.995C233.857 363.779 145.584 338.073 145.584 338.073L179.898 271.968C179.898 271.968 239.963 292.356 241.488 292.93V292.905C240.959 291.154 226.156 235.53 219.542 217.098C219.189 216.081 218.779 215.04 218.394 213.945C216.491 208.84 213.879 202.098 210.992 194.816L210.964 194.763C209.364 190.732 207.675 186.516 206.014 182.358V182.334C198.76 164.312 191.691 147.159 191.691 147.159C201.803 148.82 211.788 154.134 228.182 171.34C244.543 188.526 312.645 278.84 310.849 317.636Z" fill="black"/>
<path d="M168.462 323.77C170.91 319.091 173.399 314.433 175.855 309.759C178.266 305.182 180.706 300.623 183.166 296.071C185.708 291.363 188.378 286.664 190.432 281.719C190.469 281.625 190.342 281.547 190.281 281.629C187.193 285.701 184.651 290.191 182.112 294.615C179.484 299.2 176.921 303.825 174.383 308.463C171.894 313.006 169.499 317.595 167.137 322.2C164.71 326.94 162.257 331.852 160.502 336.888C160.433 337.089 160.711 337.286 160.843 337.089C163.68 332.877 166.108 328.264 168.462 323.77Z" fill="#2B454E"/>
<path d="M259.859 302.685L241.517 292.958L241.488 292.934V292.909C240.959 291.158 226.156 235.534 219.542 217.102C219.19 216.085 218.78 215.044 218.394 213.949C216.491 208.844 213.879 202.102 210.993 194.82L259.859 302.685Z" fill="#1C1C1C"/>
<path d="M275.043 310.755C269.95 306.95 264.46 303.546 258.928 300.417C256.164 298.851 253.343 297.412 250.444 296.116C247.36 294.738 244.1 293.742 241.037 292.356C240.803 292.249 240.631 292.61 240.865 292.717C243.727 294.012 246.446 295.817 249.21 297.321C252.084 298.888 254.971 300.43 257.882 301.926C263.598 304.866 269.212 307.987 274.895 310.989C275.031 311.062 275.17 310.849 275.043 310.755Z" fill="#1C1C1C"/>
<path d="M261.688 296.514C257.083 296.575 229.289 289.153 225.242 292.967C200.573 316.221 192.774 311.538 187.521 314.568C146.872 337.954 92.589 365.428 73.2139 365.6C43.8293 365.838 32.1263 341.177 37.0183 317.878C46.6751 271.82 108.79 182.014 136.895 158.149C151.797 145.515 150.62 164.57 144.457 185.286C140.84 197.432 134.517 215.491 128.067 233.213C122.355 249.001 107.216 289.342 106.953 290.289V290.314C106.929 290.367 106.904 290.396 106.908 290.424C106.888 290.531 106.994 290.552 107.232 290.486C108.524 290.248 143.284 273.866 178.241 264.866C190.559 261.696 216.213 257.177 225.41 261.282C230.88 263.722 230.97 266.986 230.97 266.986C230.97 266.986 235.354 266.588 239.979 270.393C243.047 272.919 243.998 276.491 243.998 276.491C243.998 276.491 248.796 277.163 251.293 279.943C254.27 283.261 254.532 286.771 254.532 286.771C261.011 288.501 261.688 296.514 261.688 296.514Z" fill="white"/>
<path d="M220.629 266.014C216.922 266.067 213.305 266.604 209.664 267.244C209.418 267.289 209.426 267.67 209.689 267.642C213.264 267.248 216.885 267.166 220.477 267.047C224.049 266.928 227.678 266.85 231.249 266.924C231.27 266.924 231.274 266.887 231.253 266.883C227.69 266.297 224.254 265.961 220.629 266.014Z" fill="#1A2E35"/>
<path d="M243.896 276.278C237.532 274.531 232.459 273.563 224.467 274.564C224.209 274.597 224.229 274.978 224.484 274.962C232.078 274.49 237.031 275.261 243.883 276.413C243.961 276.43 243.965 276.298 243.896 276.278Z" fill="#1A2E35"/>
<path d="M254.463 286.558C248.082 283.933 243.17 283.113 236.088 283.113C235.838 283.113 235.756 283.482 236.014 283.507C242.809 284.155 247.779 285.131 254.368 286.845C254.532 286.886 254.618 286.623 254.463 286.558Z" fill="#1A2E35"/>
<path d="M176.544 265.272C173.493 265.67 170.442 266.568 167.457 267.302C164.275 268.085 161.101 268.95 157.985 269.979C151.744 272.038 145.687 274.506 139.713 277.229C139.483 277.336 139.606 277.688 139.852 277.602C145.937 275.47 152.084 273.473 158.235 271.537C161.261 270.586 164.267 269.573 167.281 268.589C170.372 267.576 173.591 266.809 176.63 265.657C176.835 265.579 176.773 265.239 176.544 265.272Z" fill="#1A2E35"/>
<path d="M152.232 271.861C158.665 269.684 161.573 269.672 161.573 269.672L198.146 331.43C198.146 331.43 97.4113 367.695 76.7322 369.815C56.049 371.935 32.5201 355.648 32.1223 329.683C31.5646 293.188 91.076 205.547 121.014 171.656C134.735 156.123 150.731 144.842 154.811 147.389C159.629 150.395 150.878 169.926 146.265 184.495C137.753 211.39 107.24 290.486 107.24 290.486C107.24 290.486 144.568 274.457 152.232 271.861Z" fill="black"/>
<path d="M161.245 269.622C155.57 269.955 131.036 278.5 119.005 283.663C107.015 288.809 95.48 294.915 84.6586 302.222C78.5365 306.355 72.726 310.853 66.9852 315.499C66.7884 315.659 67.0016 315.979 67.2149 315.827C77.7943 308.262 89.0954 301.512 100.532 295.333C111.911 289.186 123.499 283.351 135.559 278.648C142.427 275.97 154.237 271.96 160.945 270.201C162.844 269.7 161.421 269.61 161.245 269.622Z" fill="#1C1C1C"/>
<path d="M137.092 215.618C135.559 218.095 134.005 220.555 132.692 223.163C132.631 223.286 132.574 223.409 132.512 223.532C134.46 217.607 136.309 211.665 138.081 205.682C138.191 205.313 137.58 205.117 137.441 205.473C128.785 227.395 120.752 249.583 112.961 271.829C110.779 278.049 108.868 284.335 106.888 290.617C106.818 290.835 107.175 290.945 107.265 290.74C109.643 285.352 112.038 280.001 114.215 274.518C116.393 269.04 118.414 263.5 120.46 257.973C124.036 248.308 127.444 238.594 130.728 228.83C131.758 227.12 132.795 225.414 133.767 223.676C135.181 221.137 136.346 218.48 137.527 215.827C137.654 215.536 137.252 215.36 137.092 215.618Z" fill="#1C1C1C"/>
<path d="M173.637 317.98C170.955 313.429 168.314 308.857 165.645 304.301C163.028 299.835 160.449 295.353 157.882 290.863C155.229 286.217 152.65 281.469 149.538 277.11C149.48 277.028 149.341 277.098 149.382 277.192C151.207 281.965 153.675 286.496 156.094 290.986C158.6 295.64 161.175 300.258 163.771 304.863C166.313 309.373 168.941 313.831 171.607 318.271C174.346 322.835 177.225 327.514 180.575 331.664C180.71 331.828 181.022 331.701 180.927 331.479C178.848 326.846 176.212 322.351 173.637 317.98Z" fill="#1C1C1C"/>
<path d="M199.601 331.562C196.567 325.579 191.847 319.703 188.353 314.011C188.222 313.794 187.898 314.019 188.025 314.237C191.199 319.576 194.107 325.329 197.141 330.758C183.306 336.47 168.617 341.563 154.507 346.561C140.028 351.695 125.455 356.559 110.681 360.815C102.422 363.193 94.1514 365.772 85.8437 367.954C85.327 368.089 85.4664 368.516 85.9954 368.413C100.942 365.6 115.618 361.282 130.089 356.69C144.847 352.007 159.412 346.775 173.907 341.358C182.063 338.311 199.847 332.045 199.601 331.562Z" fill="#1C1C1C"/>
<path d="M175.613 265.312C156.59 270.184 134.702 278.201 124.893 282.039C124.635 282.129 124.401 282.219 124.167 282.305C115.528 285.7 110.176 288.218 108.893 288.431C108.786 288.382 108.704 288.308 108.622 288.259V288.235C107.724 287.587 106.834 287.095 105.949 286.762C103.513 285.889 80.1069 282.965 80.6974 275.716C81.2674 268.544 90.8053 268.991 92.2076 269.089C90.6904 268.757 77.9869 265.78 82.1244 259.436C85.0481 254.938 97.6286 255.598 98.8956 255.647C97.6122 255.225 85.942 251.42 89.9564 244.945C92.8309 240.311 106.875 240.914 108.495 241.189C107.183 240.689 96.7798 238.946 101.635 233.365C105.005 229.478 131.45 233.431 143.206 239.299C160.687 248.025 175.613 265.312 175.613 265.312Z" fill="white"/>
<path d="M124.893 282.039C124.635 282.129 124.401 282.219 124.167 282.305C120.108 279.152 104.747 271.017 92.6791 269.471C91.9328 269.376 91.8836 268.946 92.675 268.983C107.576 269.659 120.973 278.434 124.893 282.039Z" fill="#1A2E35"/>
<path d="M99.4697 256.127C116.126 259.432 123.655 263.111 137.978 272.21C138.179 272.337 138.404 272.042 138.212 271.894C124.86 261.901 116.553 256.951 99.6132 255.705C98.8464 255.648 98.707 255.976 99.4697 256.127Z" fill="#1A2E35"/>
<path d="M109.008 241.533C124.987 245.782 133.41 249.464 146.282 259.879C146.585 260.125 146.958 259.752 146.679 259.477C134.55 247.713 124.069 243.051 109.159 241.091C108.142 240.959 108.003 241.267 109.008 241.533Z" fill="#1A2E35"/>
<path d="M189.022 177.45C179.558 180.854 161.175 167.884 153.216 156.591C152.674 155.812 152.953 146.967 152.781 136.199C152.654 129.666 152.355 122.392 151.604 115.778L194.242 121.15C194.242 121.15 191.736 135.481 193.114 147.008C193.241 147.971 193.438 148.857 193.709 149.689C193.737 149.812 193.791 149.96 193.819 150.132C195.25 155.192 198.17 174.153 189.022 177.45Z" fill="white" stroke="black" stroke-width="0.35639" stroke-miterlimit="10"/>
<path d="M193.836 150.128C193.918 150.403 194 150.702 194.053 151.059C168.527 149.976 158.817 138.753 152.535 127.985C152.342 123.881 152.072 119.718 151.604 115.778L194.246 121.141C194.246 121.141 191.728 135.485 193.122 147.008C193.233 147.967 193.45 148.841 193.725 149.689C193.754 149.796 193.778 149.964 193.836 150.128Z" fill="black" stroke="black" stroke-width="0.35639" stroke-miterlimit="10"/>
<path d="M134.128 71.0532C131.815 86.3605 145.785 127.542 157.595 135.444C174.715 146.897 199.638 144.564 208.585 124.693C217.258 105.432 198.1 52.0881 185.2 45.2279C166.198 35.12 137.543 48.4386 134.128 71.0532Z" fill="white" stroke="black" stroke-width="0.712781" stroke-miterlimit="10"/>
<path d="M173.555 89.5757C173.497 89.4773 173.382 89.7808 173.423 89.8915C174.436 92.6389 175.137 95.9603 172.931 97.7194C172.862 97.7727 172.919 97.9122 173.005 97.8671C175.929 96.4155 174.957 92.0156 173.555 89.5757Z" fill="black"/>
<path d="M170.102 87.5049C165.522 88.6572 168.162 97.7358 172.406 96.6697C176.585 95.6158 173.944 86.5372 170.102 87.5049Z" fill="black"/>
<path d="M190.662 84.4249C190.654 84.3101 190.92 84.4946 190.949 84.6094C191.679 87.447 192.991 90.5757 195.808 90.7685C195.894 90.7726 195.931 90.9202 195.833 90.9325C192.598 91.4 190.896 87.2297 190.662 84.4249Z" fill="black"/>
<path d="M192.319 80.7549C196.743 79.0942 199.736 88.0662 195.636 89.5998C191.605 91.117 188.612 82.145 192.319 80.7549Z" fill="black"/>
<path d="M165.312 84.3923C166.457 83.7198 167.404 82.912 168.47 82.1288C169.671 81.2472 170.717 80.669 171.246 79.2092C171.529 78.426 170.996 77.3229 170.262 76.9744C168.548 76.1666 166.809 76.8801 165.321 77.8806C163.705 78.9672 162.737 80.2179 162.171 82.0796C161.622 83.8838 163.799 85.278 165.312 84.3923Z" fill="black"/>
<path d="M194.5 75.1621C193.18 75.322 191.937 75.2523 190.621 75.2769C189.132 75.3056 187.947 75.482 186.639 74.6372C185.938 74.1862 185.696 72.9847 186.069 72.263C186.939 70.5818 188.755 70.0938 190.547 69.9872C192.491 69.8724 194.02 70.2784 195.595 71.4183C197.124 72.5214 196.239 74.9489 194.5 75.1621Z" fill="black"/>
<path d="M180.062 115.647C180.927 116.11 181.862 116.819 182.908 116.61C183.908 116.409 184.929 115.634 185.725 115.023C185.803 114.962 185.922 115.032 185.889 115.134C185.475 116.426 184.134 117.549 182.764 117.701C181.428 117.849 180.476 116.93 179.828 115.856C179.738 115.704 179.935 115.581 180.062 115.647Z" fill="black"/>
<path d="M180.567 106.367C182.851 108.352 185.553 109.012 188.198 108.766C189.379 108.664 190.568 108.36 191.687 107.922C191.913 107.852 192.13 107.762 192.323 107.655C192.52 107.569 192.7 107.491 192.913 107.38C193.229 107.237 193.332 106.913 193.295 106.585L193.286 106.564C193.254 106.462 193.229 106.38 193.176 106.285C193.176 106.285 193.176 106.285 193.172 106.265L193.094 106.019C192.524 103.837 191.355 100.606 191.355 100.606C192.261 100.77 196.825 101.414 196.432 100.299C193.147 91.0969 189.498 80.862 184.286 72.3984C184.13 72.1114 183.679 72.3205 183.794 72.6198C186.598 81.5878 190.966 90.0021 193.926 98.97C192.495 98.8552 190.133 98.5599 189.006 98.9126C188.723 99.0889 191.376 105.117 191.552 106.117C191.552 106.117 191.564 106.158 191.564 106.228C188.062 107.753 184.999 107.45 180.755 106.035C180.501 105.937 180.333 106.191 180.567 106.367Z" fill="black"/>
<path opacity="0.2" d="M138.622 100.065C141.037 98.0882 144.088 87.9598 145.507 83.7772C146.979 79.4307 142.612 61.8106 141.185 56.5701C137.58 60.6378 135.042 65.6118 134.148 71.2132C133.123 77.5895 135.108 88.8906 138.622 100.065Z" fill="black"/>
<path d="M178.934 61.6342C176.888 66.0464 172.743 69.2038 167.879 69.7861C163.143 70.352 157.751 68.519 154.864 64.5948C154.778 64.48 154.598 64.6112 154.684 64.7301C157.771 68.9209 162.68 71.6928 168.002 70.926C172.997 70.2043 177.524 66.5097 179.254 61.7777C179.328 61.5645 179.029 61.4291 178.934 61.6342Z" fill="#1A2E35"/>
<path d="M155.295 32.2126C147.491 34.6443 141.533 41.0616 140.201 47.2371C139.389 50.9891 140.078 54.3638 141.57 57.5705C141.632 57.7017 141.902 57.591 141.853 57.4556C139.873 52.2684 140.758 45.4574 145.388 40.1062C149.837 34.9682 156.783 31.7739 163.758 32.352C167.4 32.6514 170.659 33.9718 172.755 36.1205C172.989 36.3624 173.526 36.0056 173.317 35.7514C169.77 31.4622 162.356 30.0147 155.295 32.2126Z" fill="#1A2E35"/>
<path d="M205.793 36.1287C203.443 32.6186 199.79 30.0804 195.738 28.9404C190.063 27.3412 184.741 29.3505 179.496 31.4499C179.353 31.5073 179.443 31.7288 179.582 31.6714C184.056 29.8958 188.694 28.3581 193.549 29.3054C197.506 30.0804 201.241 32.1921 203.804 35.325C209.127 41.8284 208.758 51.8953 202.853 57.9067C199.511 61.3102 194.713 63.2374 189.948 63.0816C189.76 63.0775 189.706 63.3646 189.899 63.3769C198.678 63.8935 207.015 57.5623 208.413 48.7871C209.106 44.4569 208.249 39.7905 205.793 36.1287Z" fill="#1A2E35"/>
<path d="M134.033 79.8159C134.033 79.8159 122.589 67.8668 126.529 57.9599C128.76 52.3462 140.668 49.6358 140.668 49.6358C140.668 49.6358 142.542 41.8201 151.637 36.8462C160.826 31.823 174.124 34.2587 174.124 34.2587C174.124 34.2587 181.944 26.2831 192.093 28.8091C206.244 32.3314 209.963 51.3211 199.384 60.7524C191.954 67.3748 178.11 63.0528 178.11 63.0528C177.028 63.5243 167.473 73.7183 155.869 65.8986C155.869 65.8986 150.567 74.1858 142.973 71.5696C142.977 71.5737 141.562 78.8645 134.033 79.8159Z" fill="black"/>
<path d="M193.696 149.23L184.626 174.321L152.888 144.371L144.609 154.684C144.609 154.684 176.38 202.98 176.482 200.737L185.811 179.156L200.999 193.344L198.404 156.369L193.696 149.23Z" fill="#EDEFEF"/>
<path d="M200.754 174.994C200.118 168.904 199.651 162.749 198.736 156.697C198.703 156.484 198.363 156.398 198.318 156.656C197.317 162.598 199.864 185.877 200.052 191.474C200.032 191.453 200.007 191.433 199.987 191.412C199.351 190.797 185.934 178.955 185.811 179.152C183.74 182.6 176.893 198.318 176.437 199.741C171.414 192.068 152.207 164.213 146.331 157.001C146.163 156.791 145.839 156.98 145.974 157.226C150.464 165.357 175.9 202.886 176.265 202.763C176.524 202.947 185.044 183.584 186.012 179.951C188.304 182.555 201.906 195.98 201.914 195.07C201.98 188.94 201.385 181.091 200.754 174.994Z" fill="#1C1C1C"/>
<path d="M148.254 104.21C148.254 104.21 136.424 92.171 130.806 96.6119C125.188 101.053 135.682 119.624 143.403 121.109C151.124 122.593 152.637 115.474 152.637 115.474L148.254 104.21Z" fill="white" stroke="black" stroke-width="0.712781" stroke-miterlimit="10"/>
<path d="M133.947 101.857C133.828 101.865 133.832 102.033 133.943 102.058C139.385 103.267 142.862 107.54 145.564 112.124C143.731 110.492 141.496 109.808 139.27 112.034C139.155 112.153 139.315 112.338 139.454 112.284C141.468 111.489 143.034 111.595 144.724 113.031C145.921 114.048 146.856 115.429 147.799 116.676C148.115 117.09 148.898 116.709 148.635 116.213C148.615 116.176 148.594 116.139 148.574 116.102C147.606 109.586 141.033 101.34 133.947 101.857Z" fill="#1A2E35"/>
</g>
</svg>
